# xmcd CD database file
#
# Track frame offsets:
#	150
#	20625
#	43497
#	63945
#
# Disc length: 1155 seconds
#
# Revision: 1
# Processed by: cddbd v1.5PL3 Copyright (c) Steve Scherf et al.
# Submitted via: CDex 1.50beta9
#
DISCID=34048104
DTITLE=今井　美樹 - 私はあなたの空になりたい
DYEAR=1999
DGENRE=J-POP
TTITLE0=私はあなたの空になりたい
TTITLE1=白のワルツ
TTITLE2=私はあなたの空になりたい(instrumental)
TTITLE3=白のワルツ(instrumental)
EXTD=YEAR: 1999
EXTT0=
EXTT1=
EXTT2=
EXTT3=
PLAYORDER=
